<svg width="140" height="80" viewBox="0 0 140 80" fill="none" xmlns="http://www.w3.org/2000/svg">
<mask id="mask0_2607_282" style="mask-type:alpha" maskUnits="userSpaceOnUse" x="0" y="0" width="140" height="80">
<rect width="140" height="80" fill="#D9D9D9"/>
</mask>
<g mask="url(#mask0_2607_282)">
<path d="M120.666 71.423C121.698 52.7245 117.768 33.9602 103.376 20.065C90.3859 7.52308 72.7621 5.15967 64.3777 23.6589C60.4086 32.416 61.8412 45.2717 70.7115 50.8408C80.5937 57.0453 88.3226 47.4889 88 40C87.247 22.5088 57.6782 24.2536 37.5 23.6589C13.6044 22.9547 1.85299 1.69801 2.00002 1.62886" stroke="white" stroke-miterlimit="1.5" stroke-linecap="round" stroke-linejoin="round"/>
<path d="M137.351 57.7485C135.253 58.321 133.627 59.6526 131.933 60.9029C126.372 65.0076 121.748 71.107 120.633 77.8445C119.38 70.5722 115.17 61.552 107.601 58.7139" stroke="white" stroke-miterlimit="1.5" stroke-linecap="round" stroke-linejoin="round"/>
</g>
</svg>
