<svg width="21" height="20" viewBox="0 0 21 20" fill="none" xmlns="http://www.w3.org/2000/svg">
<path fill-rule="evenodd" clip-rule="evenodd" d="M7.66679 6.969H11.3808V8.819C11.9158 7.755 13.2878 6.799 15.3488 6.799C19.2998 6.799 20.2378 8.917 20.2378 12.803V20H16.2378V13.688C16.2378 11.475 15.7028 10.227 14.3408 10.227C12.4518 10.227 11.6668 11.572 11.6668 13.687V20H7.66679V6.969V6.969ZM0.807793 19.83H4.80779V6.799H0.807793V19.83V19.83ZM5.38079 2.55C5.38094 2.88528 5.31445 3.21724 5.18518 3.52659C5.05591 3.83594 4.86644 4.11651 4.62779 4.352C4.14419 4.83262 3.4896 5.10165 2.80779 5.1C2.12718 5.09954 1.4741 4.8312 0.989793 4.353C0.752004 4.11671 0.563179 3.83582 0.434137 3.52643C0.305094 3.21704 0.238372 2.88522 0.237793 2.55C0.237793 1.873 0.507793 1.225 0.990793 0.747C1.47468 0.268158 2.12803 -0.000299211 2.80879 2.50265e-07C3.49079 2.50265e-07 4.14479 0.269 4.62779 0.747C5.10979 1.225 5.38079 1.873 5.38079 2.55Z" fill="black"/>
</svg>
