<svg width="20" height="19" viewBox="0 0 20 19" fill="none" xmlns="http://www.w3.org/2000/svg">
<path d="M9.86632 6.24445C8.14601 6.24445 6.7421 7.64835 6.7421 9.36867C6.7421 11.089 8.14601 12.4929 9.86632 12.4929C11.5866 12.4929 12.9905 11.089 12.9905 9.36867C12.9905 7.64835 11.5866 6.24445 9.86632 6.24445ZM19.2366 9.36867C19.2366 8.07492 19.2484 6.79288 19.1757 5.50148C19.103 4.00148 18.7609 2.67023 17.664 1.57335C16.5648 0.474134 15.2359 0.134291 13.7359 0.0616346C12.4421 -0.0110216 11.1601 0.000697135 9.86866 0.000697135C8.57491 0.000697135 7.29288 -0.0110216 6.00148 0.0616346C4.50148 0.134291 3.17023 0.476478 2.07335 1.57335C0.974135 2.67257 0.634291 4.00148 0.561635 5.50148C0.488978 6.79523 0.500697 8.07726 0.500697 9.36867C0.500697 10.6601 0.488978 11.9444 0.561635 13.2359C0.634291 14.7359 0.976478 16.0671 2.07335 17.164C3.17257 18.2632 4.50148 18.603 6.00148 18.6757C7.29523 18.7484 8.57726 18.7366 9.86866 18.7366C11.1624 18.7366 12.4444 18.7484 13.7359 18.6757C15.2359 18.603 16.5671 18.2609 17.664 17.164C18.7632 16.0648 19.103 14.7359 19.1757 13.2359C19.2507 11.9444 19.2366 10.6624 19.2366 9.36867V9.36867ZM9.86632 14.1757C7.20617 14.1757 5.05929 12.0288 5.05929 9.36867C5.05929 6.70851 7.20617 4.56163 9.86632 4.56163C12.5265 4.56163 14.6734 6.70851 14.6734 9.36867C14.6734 12.0288 12.5265 14.1757 9.86632 14.1757ZM14.8702 5.48742C14.2491 5.48742 13.7476 4.98585 13.7476 4.36476C13.7476 3.74367 14.2491 3.2421 14.8702 3.2421C15.4913 3.2421 15.9929 3.74367 15.9929 4.36476C15.9931 4.51224 15.9642 4.65831 15.9078 4.7946C15.8515 4.93089 15.7688 5.05473 15.6645 5.15901C15.5602 5.2633 15.4364 5.34598 15.3001 5.40234C15.1638 5.45869 15.0177 5.4876 14.8702 5.48742V5.48742Z" fill="black"/>
</svg>
