<svg width="18" height="20" viewBox="0 0 18 20" fill="none" xmlns="http://www.w3.org/2000/svg">
<path d="M16.6287 4.69C15.6319 4.47079 14.7301 3.94144 14.0528 3.17789C13.3755 2.41435 12.9575 1.45587 12.8587 0.44V0H9.40872V13.67C9.40942 14.2766 9.21925 14.868 8.86516 15.3604C8.51107 15.8529 8.011 16.2215 7.43578 16.414C6.86057 16.6065 6.23938 16.6131 5.6602 16.4329C5.08102 16.2527 4.57321 15.8948 4.20872 15.41C3.88217 14.9808 3.68221 14.4689 3.63145 13.932C3.58069 13.3951 3.68116 12.8548 3.9215 12.372C4.16183 11.8892 4.53245 11.4834 4.99143 11.2003C5.45041 10.9172 5.97945 10.7681 6.51872 10.77C6.81696 10.7683 7.11371 10.8121 7.39872 10.9V7.4C7.06706 7.35893 6.73283 7.34221 6.39872 7.35C5.16803 7.38288 3.97364 7.77393 2.9618 8.47527C1.94997 9.1766 1.16461 10.1578 0.701896 11.2986C0.239182 12.4395 0.119198 13.6905 0.356636 14.8986C0.594075 16.1066 1.17863 17.2191 2.03872 18.1C2.92021 18.9962 4.04821 19.6101 5.27941 19.8638C6.51061 20.1175 7.78943 19.9994 8.95338 19.5246C10.1173 19.0498 11.1139 18.2397 11.8163 17.1973C12.5188 16.1548 12.8956 14.9271 12.8987 13.67V6.67C14.2902 7.66395 15.9587 8.19565 17.6687 8.19V4.79C17.3328 4.79139 16.9977 4.75787 16.6687 4.69H16.6287Z" fill="black"/>
</svg>
