<svg width="22" height="15" viewBox="0 0 22 15" fill="none" xmlns="http://www.w3.org/2000/svg">
<path d="M21.2304 2.29922C21.1109 1.854 20.8765 1.44798 20.5507 1.1218C20.225 0.795626 19.8192 0.560731 19.3742 0.440625C17.7359 8.9407e-08 11.1687 0 11.1687 0C11.1687 0 4.60151 -8.9407e-08 2.96323 0.438281C2.51797 0.557998 2.11204 0.792763 1.78621 1.119C1.46039 1.44524 1.22614 1.85146 1.10698 2.29688C0.668701 3.9375 0.668701 7.35938 0.668701 7.35938C0.668701 7.35938 0.668701 10.7813 1.10698 12.4195C1.34839 13.3242 2.06089 14.0367 2.96323 14.2781C4.60151 14.7188 11.1687 14.7188 11.1687 14.7188C11.1687 14.7188 17.7359 14.7188 19.3742 14.2781C20.2789 14.0367 20.989 13.3242 21.2304 12.4195C21.6687 10.7813 21.6687 7.35938 21.6687 7.35938C21.6687 7.35938 21.6687 3.9375 21.2304 2.29922ZM9.08276 10.5V4.21875L14.5203 7.33594L9.08276 10.5Z" fill="black"/>
</svg>
